# xmcd CD database file
#
# Track frame offsets:
#	150
#	16602
#	27832
#	42199
#	68923
#	79445
#	92453
#	123213
#	139908
#	152999
#	177075
#
# Disc length: 3601 seconds
#
# Revision: 0
# Processed by: cddbd v1.5.2PL0 Copyright (c) Steve Scherf et al.
# Submitted via: CDex 1.70beta2
#
DISCID=830e0f0b
DTITLE=Guappecarto - Guappecarto
DYEAR=2012
DGENRE=Jazz
TTITLE0=Ora mai
TTITLE1=St Denis
TTITLE2=IlTreno dei Guappi
TTITLE3=RockFort
TTITLE4=In due
TTITLE5=Walter Carosello
TTITLE6=Ye bell
TTITLE7=Notte a caso
TTITLE8=Tu si...
TTITLE9=Per Bach
TTITLE10=Feminis
EXTD=YEAR: 2012
EXTT0=
EXTT1=
EXTT2=
EXTT3=
EXTT4=
EXTT5=
EXTT6=
EXTT7=
EXTT8=
EXTT9=
EXTT10=
PLAYORDER=
